{
  "accessors": [
    {
      "bufferView": 0,
      "componentType": 5126,
      "count": 39575,
      "max": [
        69.97908020019531,
        -125.17718505859375,
        59.29911804199219
      ],
      "min": [
        -66.64588928222656,
        -308.11029052734375,
        -107.62892150878906
      ],
      "type": "VEC3"
    },
    {
      "bufferView": 0,
      "byteOffset": 12,
      "componentType": 5126,
      "count": 39575,
      "type": "VEC3"
    },
    {
      "bufferView": 1,
      "componentType": 5125,
      "count": 214794,
      "type": "SCALAR"
    }
  ],
  "asset": {
    "version": "2.0"
  },
  "bufferViews": [
    {
      "buffer": 0,
      "byteLength": 949800,
      "byteStride": 24,
      "target": 34962
    },
    {
      "buffer": 0,
      "byteLength": 859176,
      "byteOffset": 949800,
      "target": 34963
    }
  ],
  "buffers": [
    {
      "byteLength": 1808976,
      "uri": "scene.bin"
    }
  ],
  "materials": [
    {
      "name": "fallback Material",
      "pbrMetallicRoughness": {
        "baseColorFactor": [
          0.45098039215686275,
          0.45098039215686275,
          0.45098039215686275,
          1.0
        ]
      }
    }
  ],
  "meshes": [
    {
      "name": "Segmentation_brain 35637points",
      "primitives": [
        {
          "attributes": {
            "NORMAL": 1,
            "POSITION": 0
          },
          "indices": 2,
          "material": 0,
          "mode": 4
        }
      ]
    }
  ],
  "nodes": [
    {
      "matrix": [
        0.001,
        0.0,
        0.0,
        0.0,
        0.0,
        0.001,
        0.0,
        0.0,
        0.0,
        0.0,
        0.001,
        0.0,
        0.0,
        0.0,
        0.0,
        1.0
      ],
      "mesh": 0,
      "name": "Segmentation_brain 35637points"
    },
    {
      "children": [
        0
      ],
      "matrix": [
        1.0,
        0.0,
        0.0,
        0.0,
        0.0,
        0.0,
        -1.0,
        0.0,
        0.0,
        1.0,
        0.0,
        0.0,
        -0.017453826904296876,
        0.013230770111083985,
        0.23957125854492187,
        1.0
      ]
    }
  ],
  "scenes": [
    {
      "nodes": [
        1
      ]
    }
  ]
}
