{
  "accessors": [
    {
      "bufferView": 0,
      "componentType": 5126,
      "count": 38424,
      "max": [
        69.743408203125,
        85.05610656738281,
        59.08800506591797
      ],
      "min": [
        -66.72979736328125,
        -97.55750274658203,
        -106.16747283935547
      ],
      "type": "VEC3"
    },
    {
      "bufferView": 0,
      "byteOffset": 12,
      "componentType": 5126,
      "count": 38424,
      "type": "VEC3"
    },
    {
      "bufferView": 1,
      "componentType": 5125,
      "count": 217092,
      "type": "SCALAR"
    }
  ],
  "asset": {
    "version": "2.0"
  },
  "bufferViews": [
    {
      "buffer": 0,
      "byteLength": 922176,
      "byteStride": 24,
      "target": 34962
    },
    {
      "buffer": 0,
      "byteLength": 868368,
      "byteOffset": 922176,
      "target": 34963
    }
  ],
  "buffers": [
    {
      "byteLength": 1790544,
      "uri": "1234.bin"
    }
  ],
  "materials": [
    {
      "name": "fallback Material",
      "pbrMetallicRoughness": {
        "baseColorFactor": [
          0.45098039215686275,
          0.45098039215686275,
          0.45098039215686275,
          1.0
        ]
      }
    }
  ],
  "meshes": [
    {
      "name": "Segmentation_brain007",
      "primitives": [
        {
          "attributes": {
            "NORMAL": 1,
            "POSITION": 0
          },
          "indices": 2,
          "material": 0,
          "mode": 4
        }
      ]
    }
  ],
  "nodes": [
    {
      "matrix": [
        0.001,
        0.0,
        0.0,
        0.0,
        0.0,
        0.001,
        0.0,
        0.0,
        0.0,
        0.0,
        0.001,
        0.0,
        0.0,
        0.0,
        0.0,
        1.0
      ],
      "mesh": 0,
      "name": "Segmentation_brain007"
    },
    {
      "children": [
        0
      ],
      "matrix": [
        1.0,
        0.0,
        0.0,
        0.0,
        0.0,
        0.0,
        -1.0,
        0.0,
        0.0,
        1.0,
        0.0,
        0.0,
        -0.7468094482421875,
        0.013230770111083985,
        1.232825927734375,
        1.0
      ]
    }
  ],
  "scenes": [
    {
      "nodes": [
        1
      ]
    }
  ]
}
